HIERARCHY
ROOT hip
{
	OFFSET 0.000000 0.000000 0.000000 
	CHANNELS 6 Xposition Yposition Zposition Xrotation Zrotation Yrotation
	JOINT abdomen
	{
		OFFSET 0.000000 3.402643 0.000000 
		CHANNELS 3 Xrotation Zrotation Yrotation
		JOINT chest
		{
			OFFSET 0.000000 8.438565 -0.680529 
			CHANNELS 3 Xrotation Zrotation Yrotation
			JOINT neck
			{
				OFFSET 0.000000 10.207942 -0.272212 
				CHANNELS 3 Xrotation Zrotation Yrotation
				JOINT head
				{
					OFFSET 0.000000 3.130431 0.000000 
					CHANNELS 3 Xrotation Zrotation Yrotation
					End Site
					{
						OFFSET 0.000000 3.130435 0.000000 
					}
				}
			}
			JOINT lCollar
			{
				OFFSET 3.470700 6.669187 -0.816635 
				CHANNELS 3 Yrotation Zrotation Xrotation
				JOINT lShldr
				{
					OFFSET 3.198488 0.000000 0.000000 
					CHANNELS 3 Zrotation Yrotation Xrotation
					JOINT lForeArm
					{
						OFFSET 10.139888 0.000000 0.000000 
						CHANNELS 3 Yrotation Zrotation Xrotation
						JOINT lHand
						{
							OFFSET 8.370511 0.000000 0.000000 
							CHANNELS 3 Zrotation Yrotation Xrotation
							End Site
							{
								OFFSET 4.083176 0.000000 0.000000 
							}
						}
					}
				}
			}
			JOINT rCollar
			{
				OFFSET -3.470700 6.669187 -0.816635 
				CHANNELS 3 Yrotation Zrotation Xrotation
				JOINT rShldr
				{
					OFFSET -3.198488 0.000000 0.000000 
					CHANNELS 3 Zrotation Yrotation Xrotation
					JOINT rForeArm
					{
						OFFSET -10.139888 0.000000 0.000000 
						CHANNELS 3 Yrotation Zrotation Xrotation
						JOINT rHand
						{
							OFFSET -8.370511 0.000000 0.000000 
							CHANNELS 3 Zrotation Yrotation Xrotation
							End Site
							{
								OFFSET -4.083176 0.000000 0.000000 
							}
						}
					}
				}
			}
		}
	}
	JOINT lThigh
	{
		OFFSET 5.308129 -1.633274 1.361059 
		CHANNELS 3 Xrotation Zrotation Yrotation
		JOINT lShin
		{
			OFFSET -2.041588 -20.007561 0.000000 
			CHANNELS 3 Xrotation Zrotation Yrotation
			JOINT lFoot
			{
				OFFSET 0.000000 -19.190928 -1.224953 
				CHANNELS 3 Xrotation Yrotation Zrotation
				End Site
				{
					OFFSET 0.000000 -2.449906 4.627600 
				}
			}
		}
	}
	JOINT rThigh
	{
		OFFSET -5.308129 -1.633274 1.361059 
		CHANNELS 3 Xrotation Zrotation Yrotation
		JOINT rShin
		{
			OFFSET 2.041588 -20.007561 0.000000 
			CHANNELS 3 Xrotation Zrotation Yrotation
			JOINT rFoot
			{
				OFFSET 0.000000 -19.190928 -1.224953 
				CHANNELS 3 Xrotation Yrotation Zrotation
				End Site
				{
					OFFSET 0.000000 -2.449906 4.627600 
				}
			}
		}
	}
}
MOTION
Frames: 15
Frame Time: 0.016667
-0.058983 49.780979 -0.584188 -1.289617 1.083984 -0.029292 0.000000 0.000000 0.000000 -2.197198 0.096548 0.294973 7.206772 0.380859 -0.039062 4.583551 0.878884 -0.410108 -0.517999 9.047910 -1.364594 -7.019615 6.782768 -16.246157 0.654170 -8.262946 24.585909 2.382866 -2.496379 -3.541096 0.363885 -8.917988 -1.432154 2.384187 -9.186060 -12.690332 -0.283031 5.939028 18.875338 -1.429984 2.936625 -3.497100 -2.254064 6.429410 4.717170 21.416300 -2.927553 11.484936 -15.875434 1.092144 -7.737816 -2.090052 -12.791031 -9.497025 21.068523 3.042760 -9.851690 -13.837261 -1.299720 10.515575 
-0.047273 49.788666 -0.622372 -1.256994 1.083981 0.146643 0.000000 0.000000 0.000000 -2.197248 0.023509 0.144919 7.137273 0.390623 -0.205073 4.800318 0.732409 -0.341769 -0.535211 8.677241 -1.374213 -6.991057 6.575395 -16.370474 0.596383 -8.209654 24.504229 2.318435 -2.246153 -3.528479 0.189390 -8.864831 -1.432189 2.667321 -8.853435 -13.599998 -0.242769 5.498079 19.900585 -1.515234 3.048794 -3.504319 -2.362904 6.442857 4.680037 21.413160 -2.982287 11.349531 -15.851426 1.057275 -7.635243 -2.050703 -12.807162 -9.521435 20.966055 3.056547 -9.817776 -13.810422 -1.313265 10.507708 
-0.026111 49.811943 -0.688140 -1.187025 0.917958 0.273559 0.000000 0.000000 0.000000 -2.314460 0.124020 0.066749 7.450097 0.332030 -0.185544 4.562202 1.132784 -0.410076 -0.523488 8.815242 -1.493017 -8.032921 6.040881 -16.337812 0.463294 -8.292397 22.566240 4.001383 -1.102727 -3.580854 0.120632 -8.981016 -1.541334 3.619868 -8.382503 -14.914725 -0.159444 4.789904 20.956898 -2.213183 2.927661 -3.538183 -2.557879 6.560259 4.717106 21.410301 -2.909337 11.274458 -15.727429 1.069595 -7.604285 -1.982780 -12.589788 -9.422480 20.553915 3.067129 -9.960805 -13.550918 -1.283586 10.484182 
0.029409 49.824280 -0.734005 -1.274023 0.966782 0.312620 0.000000 0.000000 0.000000 -2.402339 -0.002370 0.078697 7.899343 0.292967 -0.205075 4.497865 1.533140 -0.517654 -0.450271 8.960713 -1.562087 -9.898442 5.185195 -17.431391 0.327797 -7.863020 21.498749 6.119145 -0.524392 -3.640705 -0.430473 -8.536154 -1.649008 4.822219 -6.977353 -19.517406 -0.088236 3.508773 21.805328 -2.659080 3.174168 -3.563047 -2.528313 6.344564 4.550024 21.331533 -2.824882 11.499025 -15.580303 1.042303 -7.572608 -1.855590 -12.779016 -9.595939 20.436945 3.141569 -9.790810 -13.419988 -1.241526 10.447991 
0.125562 49.841526 -0.812916 -1.158740 0.859368 0.224731 0.000000 0.000000 0.000000 -2.783197 0.017994 0.086584 8.436102 0.341794 -0.234371 5.412953 2.128742 -0.713124 -1.169384 8.821568 -1.868318 -12.312010 5.219700 -19.732578 0.194920 -6.848415 20.036695 8.418432 -1.741840 -3.799286 -0.517994 -7.857908 -2.001145 6.911750 -5.716413 -26.642950 -0.022405 2.517875 17.193316 -5.549198 3.646970 -3.740488 -2.741382 6.222749 4.380600 21.354807 -2.738267 11.805302 -15.545622 1.028445 -7.502491 -1.894731 -12.755319 -9.553371 20.037642 3.132202 -9.693133 -13.100201 -1.196757 10.484789 
0.237337 49.869072 -0.903774 -1.075687 0.615233 -0.136711 0.000000 0.000000 0.000000 -2.890632 0.214953 -0.216504 8.300692 0.029297 -0.175781 7.494031 2.831812 -0.713467 -1.422210 7.220933 -1.978527 -14.194414 5.010489 -24.177164 0.103727 -5.454403 16.370111 9.964619 -3.734477 -4.017229 -0.307574 -6.379816 -2.063027 8.784298 -3.636623 -37.606583 -0.590476 1.628570 10.521619 -9.126157 4.731947 -4.038116 -2.887233 6.251184 4.374036 21.340303 -2.668305 12.207899 -15.500040 1.027724 -7.458079 -1.816833 -12.673041 -9.523136 19.398201 3.257353 -9.093326 -12.714845 -1.148183 10.325255 
0.389499 49.880016 -1.010900 -1.091764 0.556586 -0.800744 0.000000 0.000000 0.000000 -2.939473 0.279332 -0.261826 8.076541 -0.126953 -0.166037 10.168855 2.948997 -0.703701 -1.617800 5.118538 -2.019360 -16.057835 4.511478 -28.875534 0.456114 -4.110031 11.083556 10.434671 -5.605561 -4.189157 0.681198 -3.894062 -2.055156 12.823298 -5.516781 -45.233551 8.224724 2.241028 0.976537 -12.905726 2.830265 -4.117191 -2.958859 6.102665 4.408922 21.401896 -2.776685 12.857845 -15.519481 1.005644 -7.316249 -1.885187 -12.906434 -9.552005 19.065592 3.345309 -8.079890 -12.410692 -1.140104 10.202259 
0.573119 49.886425 -1.153864 -1.078100 0.488090 -1.601588 0.000000 0.000000 0.000000 -2.783319 0.402678 0.109071 7.802651 -0.244141 0.019531 11.250190 2.939051 -0.948022 -1.941321 2.779837 -1.876404 -20.889101 8.414311 -32.457775 -11.587606 -3.504396 4.941084 9.263823 -3.026638 -3.930045 1.831012 -1.341511 -1.923210 18.523279 -8.244767 -49.555729 18.600651 2.611028 -5.504291 -17.174904 -0.038579 -3.963713 -3.082276 5.860908 4.401210 21.527159 -2.775968 13.756177 -15.493657 0.999344 -7.264266 -2.109663 -13.151256 -9.553751 18.763325 3.413817 -6.999704 -12.040369 -1.080435 10.059885 
0.776497 49.877502 -1.298977 -1.333936 0.360992 -2.470716 0.000000 0.000000 0.000000 -2.031338 0.524716 0.362382 6.952216 -0.380858 0.136716 11.464670 2.870493 -1.173339 -1.830728 0.722752 -1.220224 -26.838036 11.012875 -34.857761 -21.828396 -3.190772 -1.180783 10.032075 -1.091998 -3.821396 2.721393 0.701158 -1.278006 23.867987 -9.617055 -48.626976 24.415291 2.970647 -8.006237 -20.715261 -2.295419 -3.684023 -3.063159 5.696213 4.473154 21.859545 -2.772404 14.631866 -15.571820 0.990320 -7.259459 -2.207348 -13.404125 -9.630528 18.612648 3.503536 -6.081853 -11.602727 -1.034077 9.985116 
0.998491 49.876251 -1.469721 -1.551992 0.155989 -3.310535 0.000000 0.000000 0.000000 -1.357144 0.593401 0.777784 6.267869 -0.361324 0.263667 11.589875 2.821391 -1.427417 -2.245079 -0.765816 -0.643981 -32.980953 12.904342 -35.769238 -27.486803 -2.957502 -2.701485 10.134325 0.064497 -3.748182 3.603945 3.069446 -0.732555 28.518175 -11.536121 -43.089249 28.285137 3.321174 -8.629575 -20.806276 -4.696043 -3.286147 -3.182109 5.494776 4.438635 22.200327 -2.687843 15.707062 -15.572867 1.011948 -7.269704 -2.226551 -13.530272 -9.628115 18.208483 3.553278 -5.129046 -11.071961 -0.990124 9.928524 
1.231809 49.887066 -1.657741 -1.567551 -0.068197 -3.955088 0.000000 0.000000 0.000000 -0.966109 0.619133 1.050012 5.936535 -0.283201 0.195310 11.475105 2.645346 -1.681052 -3.051138 -2.414008 -0.331680 -38.250710 14.953365 -33.651157 -30.492554 -3.367962 -3.074803 10.374110 1.198699 -3.662158 4.575292 5.599104 -0.450429 33.091431 -13.399364 -38.148945 30.636137 3.196548 -5.315309 -17.985342 -5.853767 -3.158022 -3.446389 5.330195 4.409088 22.447384 -2.679276 16.414433 -15.553565 0.975138 -7.102147 -2.343482 -13.518223 -9.483130 17.597483 3.463867 -4.620309 -10.405865 -0.940039 10.022471 
1.468285 49.890221 -1.838687 -1.475713 -0.350430 -4.599702 0.000000 0.000000 0.000000 -0.643888 0.678385 1.054230 5.545885 -0.341795 0.166013 11.825366 2.840413 -1.789268 -3.642388 -4.318117 -0.126338 -42.343643 17.232418 -28.787437 -31.990967 -4.440191 -3.098941 8.706302 2.475083 -3.550740 5.302495 7.825486 -0.284692 37.267643 -15.387293 -31.545734 32.450657 3.375151 -0.313789 -14.594116 -5.386126 -3.277999 -3.824370 5.384398 4.546800 22.785406 -2.814284 16.863747 -15.669779 0.952037 -6.841245 -2.499793 -13.449416 -9.303962 16.935850 3.484174 -4.137575 -9.718558 -0.870568 10.059233 
1.722109 49.910461 -2.087777 -1.099897 -0.476608 -5.117416 0.000000 0.000000 0.000000 -0.516991 0.582614 0.974984 4.893477 -0.292967 -0.175829 13.332044 2.362054 -1.846952 -4.070426 -5.805007 -0.077529 -46.822254 19.224859 -24.343388 -32.640747 -5.305212 2.274897 4.693286 3.596536 -3.500181 5.794355 9.515475 -0.257215 41.419300 -17.724049 -24.834509 34.293976 3.776016 6.254960 -12.610251 -4.502288 -3.397825 -4.589422 5.282650 4.561621 22.927662 -3.008174 17.325111 -15.545750 0.867097 -6.434090 -2.988372 -13.561664 -9.202372 16.107880 3.580391 -3.706625 -8.818491 -0.796481 10.037786 
1.969582 49.897114 -2.364124 -0.801569 -0.476098 -5.761925 0.000000 0.000000 0.000000 -0.214136 0.365967 0.966000 4.612637 -0.546865 -0.341875 14.491517 2.332654 -1.935170 -4.175050 -7.030031 0.118387 -51.046604 21.145754 -19.431957 -33.664738 -6.189666 11.139161 -0.891192 2.920222 -3.488326 6.112433 10.404961 -0.049516 49.080910 -18.780872 -27.159842 36.689362 1.959212 18.565916 -8.643986 -4.592428 -3.441016 -5.341081 5.126123 4.595696 23.240412 -3.266414 17.838972 -15.518478 0.843093 -6.094224 -3.681226 -13.803144 -8.999221 15.819359 3.535027 -2.943901 -8.277900 -0.753391 10.129000 
2.307512 49.888809 -2.706228 -0.145551 -0.466101 -6.094025 0.000000 0.000000 0.000000 -0.282727 0.220278 0.773756 4.803144 -0.507746 -0.927784 15.607924 1.805439 -2.090652 -4.707031 -7.851562 0.000000 -55.673813 23.438887 -15.097342 -35.506668 -6.646617 20.683815 -8.343317 1.762738 -3.345370 6.221319 10.891312 -0.159917 52.283703 -21.840374 -18.964136 38.426548 3.648885 17.243368 -11.748706 -5.684105 -3.291492 -6.666655 4.645878 4.124887 23.591305 -3.100147 18.597620 -15.341213 0.769097 -5.878907 -4.599014 -14.224105 -9.098701 15.171611 3.856278 -2.435801 -7.342219 -0.675492 10.116986 
